# xmcd
#
# Track frame offsets: 
#        150
#        11191
#        25137
#        36176
#        44699
#        54812
#        61576
#        72782
#        84296
#        92953
#        103039
#        113954
#        123398
#        128910
#        137889
#        148723
#        160881
#        170734
#        180612
#        189431
#
# Disc length: 2678 seconds
#
# Revision: 0
# Processed by: cddbd v1.5.2PL0 Copyright (c) Steve Scherf et al.
# Submitted via: ExactAudioCopy v1.0b1
#
DISCID=180a7414
DTITLE=Elvis Presley - Remember Elvis Presley CD3
DYEAR=1900
DGENRE=Rock and Roll
TTITLE0=Jailhouse Rock
TTITLE1=Lonesome Cowboy
TTITLE2=Have I Told You Lately I Love You
TTITLE3=Long Tall Sally
TTITLE4=Good Rockin' Tonight
TTITLE5=Party
TTITLE6=Shake, Rattle And Roll
TTITLE7=Just Because
TTITLE8=Rip It Up
TTITLE9=Treat Me Nice
TTITLE10=I'll Never lLet You Go
TTITLE11=Young And Beautyful
TTITLE12=Hot Dog
TTITLE13=All Shook Up
TTITLE14=Paralyzed
TTITLE15=I Need You So
TTITLE16=Lawdy Miss Clwdy
TTITLE17=Let Me
TTITLE18=Ready Teddy
TTITLE19=Got A Lot O'Livin' To Do
EXTD=
EXTT0=
EXTT1=
EXTT2=
EXTT3=
EXTT4=
EXTT5=
EXTT6=
EXTT7=
EXTT8=
EXTT9=
EXTT10=
EXTT11=
EXTT12=
EXTT13=
EXTT14=
EXTT15=
EXTT16=
EXTT17=
EXTT18=
EXTT19=
PLAYORDER=
